<svg id="visual" viewBox="0 0 960 540" width="960" height="540" xmlns="http://www.w3.org/2000/svg" xmlns:xlink="http://www.w3.org/1999/xlink" version="1.1"><rect x="0" y="0" width="960" height="540" fill="#fffcfa"></rect><path d="M0 171L20 173.2C40 175.3 80 179.7 120 172.2C160 164.7 200 145.3 240 151.8C280 158.3 320 190.7 360 196.2C400 201.7 440 180.3 480 173C520 165.7 560 172.3 600 165.3C640 158.3 680 137.7 720 134C760 130.3 800 143.7 840 157C880 170.3 920 183.7 940 190.3L960 197L960 0L940 0C920 0 880 0 840 0C800 0 760 0 720 0C680 0 640 0 600 0C560 0 520 0 480 0C440 0 400 0 360 0C320 0 280 0 240 0C200 0 160 0 120 0C80 0 40 0 20 0L0 0Z" fill="#e6c4a9" stroke-linecap="round" stroke-linejoin="miter"></path></svg>